P3
# Created by IrfanView
8 8
255
255 255 255 255 255 255 255 0 0 255 0 0 255 255 255 
255 0 0 255 0 0 255 255 255 255 255 255 255 0 0 
255 255 255 255 0 0 255 0 0 255 0 0 255 0 0 
255 0 0 255 255 255 255 0 0 255 0 0 255 0 0 
255 0 0 255 0 0 255 0 0 255 0 0 255 255 255 
125 4 4 255 0 0 255 0 0 255 0 0 255 0 0 
255 0 0 125 4 4 255 255 255 255 255 255 125 4 4 
255 0 0 255 0 0 255 0 0 125 4 4 255 255 255 
255 255 255 255 255 255 255 255 255 125 4 4 255 0 0 
125 4 4 255 255 255 255 255 255 255 255 255 255 255 255 
255 255 255 255 255 255 125 4 4 255 255 255 255 255 255 
255 255 255 255 255 255 255 255 255 255 255 255 255 255 255 
255 255 255 255 255 255 255 255 255 255 255 255 